<?xml version="1.0" encoding="UTF-8"?>
<svg id="Layer_2" data-name="Layer 2" xmlns="http://www.w3.org/2000/svg" xmlns:xlink="http://www.w3.org/1999/xlink" viewBox="0 0 130.02 130.02">
  <defs>
    <style>
      .cls-1 {
        fill: #607e8c;
      }

      .cls-2 {
        fill: #303590;
      }

      .cls-3 {
        fill: #4f5bc1;
      }

      .cls-4 {
        fill: #0fcc00;
      }

      .cls-5 {
        fill: #ededed;
      }

      .cls-6 {
        fill: url(#linear-gradient);
      }

      .cls-7 {
        fill: #d1d1d1;
      }
    </style>
    <linearGradient id="linear-gradient" x1="58.97" y1="103.08" x2="77.61" y2="113.79" gradientUnits="userSpaceOnUse">
      <stop offset="0" stop-color="#303590"/>
      <stop offset="1" stop-color="#4f5bc1"/>
    </linearGradient>
  </defs>
  <g id="Layer_1-2" data-name="Layer 1">
    <rect class="cls-5" width="130.02" height="130.02" rx="9.79" ry="9.79"/>
    <path class="cls-4" d="M130.02,43.22h-40.78V0h30.47c5.69,0,10.31,4.62,10.31,10.31v32.91Z"/>
    <rect class="cls-2" x="89.24" y="43.4" width="40.78" height="43.22"/>
    <path class="cls-3" d="M120.5,130.02h-31.25v-43.22h40.78v33.7c0,5.26-4.26,9.52-9.52,9.52Z"/>
    <polygon class="cls-6" points="89.24 86.8 47.24 130.02 89.24 130.02 89.24 86.8"/>
    <path class="cls-7" d="M89.24,86.8c0-.12-21.38-.07-33.63-.03-4.63.02-8.37,3.77-8.37,8.41v34.85"/>
    <g>
      <path class="cls-1" d="M14.59,44.81v-3.37l10.33-10.68c1.06-1.12,1.95-2.1,2.66-2.96.71-.86,1.25-1.68,1.61-2.47.37-.79.55-1.63.55-2.53,0-1.02-.24-1.9-.71-2.63s-1.11-1.3-1.92-1.7c-.81-.39-1.73-.59-2.77-.59s-2.02.22-2.82.66-1.42,1.07-1.86,1.87c-.44.8-.65,1.75-.65,2.84h-4.47c0-1.85.43-3.47,1.29-4.87.86-1.4,2.03-2.48,3.51-3.25,1.48-.77,3.18-1.15,5.09-1.15s3.63.38,5.1,1.14c1.46.76,2.61,1.79,3.44,3.09.83,1.3,1.25,2.77,1.25,4.42,0,1.12-.21,2.21-.62,3.27-.42,1.06-1.14,2.26-2.19,3.59-1.04,1.33-2.51,2.96-4.4,4.86l-5.96,6.23v.25h13.64v3.98H14.59Z"/>
      <path class="cls-1" d="M34.29,38.89v-3.76l13.11-20.75h2.98v5.53h-1.9l-9.33,14.77v.25h18.01v3.96h-22.88ZM48.69,44.81v-7.05l.04-1.74V14.38h4.43v30.43h-4.47Z"/>
    </g>
  </g>
</svg>